# xmcd
#
# Track frame offsets: 
#        150
#        7133
#        24192
#        42605
#        62111
#        87100
#        110092
#        137292
#        154303
#        181055
#        223776
#        248335
#        269484
#        288941
#
# Disc length: 4206 seconds
#
# Revision: 2
# Processed by: cddbd v1.5.2PL0 Copyright (c) Steve Scherf et al.
# Submitted via: ExactAudioCopy v1.0b3
#
DISCID=c0106c0e
DTITLE=Martina Eisenreich - Violin Tales
DYEAR=2011
DGENRE=Jazz
TTITLE0=Violin Tales(Prologue)
TTITLE1=Weberttango
TTITLE2=Valse pour Robert
TTITLE3=Duelling Banjos
TTITLE4=The Legend Of The Man In The Moon
TTITLE5=Valse pour le moment
TTITLE6=Myth Of The Pixies
TTITLE7=If
TTITLE8=Caminando
TTITLE9=Aquantines - Coloured Water (Live Version)
TTITLE10=Donna Donna
TTITLE11=Duerme Negrito
TTITLE12=Otschi Tschjornyje
TTITLE13=The Legend Of The Man In The Moon(Reprise)
EXTD=YEAR: 2011
EXTT0=
EXTT1=
EXTT2=
EXTT3=
EXTT4=
EXTT5=
EXTT6=
EXTT7=
EXTT8=
EXTT9=
EXTT10=
EXTT11=
EXTT12=
EXTT13=
PLAYORDER=
